# xmcd CD database file generated by Grip 3.2.0
# 
# Track frame offsets:
#       150
#       15820
#       28425
#       39165
#       64527
#       77365
#       87760
#       115177
#       126852
#       152152
#       161662
#       177832
#       196167
#       211955
#       225047
#       240262
#       254655
#       275465
#       290557
# 
# Disc length: 4203 seconds
# 
# Revision: 4
# Processed by: cddbd v1.5.1PL0 Copyright (c) Steve Scherf et al.
# Submitted via: Grip 3.2.0
# 
DISCID=e9106913
DTITLE=Compilations - The Best Of The Chicago Blues
DYEAR=1987
DGENRE=Blues
TTITLE0=The Jimmy Cotton Blues Quartet - Love Me Or Leave Me
TTITLE1=Jimmy Cotton - Next Time You See Me
TTITLE2=Otis Spann's South Side Piano - Spann's Stomp
TTITLE3=Buddy Guy - One Room Country Shack
TTITLE4=J.B. Hutto and His Hawks - That's The Truth
TTITLE5=Homesick James and His Dusters - Somebody Been Talkin'
TTITLE6=Buddy Guy - I Had A Dream Last Night
TTITLE7=Junior Wells - When My Baby Left Me
TTITLE8=Buddy Guy - Sweet Little Angel
TTITLE9=The Jimmy Cotton Blues Quartet - Rocket 88
TTITLE10=Otis Spann - Mule Kicking In My Stall
TTITLE11=The Jimmy Cotton Blues Quartet - The Blues Keep Falling
TTITLE12=Big Walter Horton's Blues Harp Band with Memphis Charlie - Rockin' My 
TTITLE12=Boogie
TTITLE13=Otis Spann's South Side Piano - S.P. Blues
TTITLE14=Junior Wells - Five Long Years
TTITLE15=Junior Wells - Checking On My Baby
TTITLE16=Otis Spann - Some Day
TTITLE17=Johnny Young's South Side Blues Band - Stealin' Back
TTITLE18=Junior Wells - Tobacco Road
EXTD=
EXTT0=
EXTT1=
EXTT2=
EXTT3=
EXTT4=
EXTT5=
EXTT6=
EXTT7=
EXTT8=
EXTT9=
EXTT10=
EXTT11=
EXTT12=
EXTT13=
EXTT14=
EXTT15=
EXTT16=
EXTT17=
EXTT18=
PLAYORDER=
